<svg id="Capa_2" data-name="Capa 2" xmlns="http://www.w3.org/2000/svg" viewBox="0 0 426.05 503.25"><defs><style>.cls-1{fill:#fff;}</style></defs><path class="cls-1" d="M503,416H604s6-2,6-7V363s0-7-6-7H503s-6-1-6-5V276s0-6,6-6H624s7,0,7-7V218s0-8-9-8H438s-11-1-11,10V556s-1,10,9,10H542l-33,76,79-136H502s-5,0-5-6V422S496,416,503,416Z" transform="translate(-426.97 -209.98)"/><path class="cls-1" d="M715,643s8,0,8-8V514s-1-7,7-7h98s8,1,8-7V456s1-9-9-9H728s-5,0-5-6V353s-1-5,6-5H844s9,0,9-10V298s1-11-10-11H740l34-77L653,419V635s0,8,9,8Z" transform="translate(-426.97 -209.98)"/><path class="cls-1" d="M547,673.15h22.68v4.2H552v12.36H567V694H552v14.28h18.3v4.26H547Z" transform="translate(-426.97 -209.98)"/><path class="cls-1" d="M575.11,709.87l15.36-22.5H576.79v-4h19.92V686l-15.36,22.5h15.84v4H575.11Z" transform="translate(-426.97 -209.98)"/><path class="cls-1" d="M616.15,673.15h22.68v4.2h-17.7v13.32h15v4.2h-15v17.64h-5Z" transform="translate(-426.97 -209.98)"/><path class="cls-1" d="M642.31,698c0-9.78,6.36-15.36,13.5-15.36s13.5,5.58,13.5,15.36-6.36,15.24-13.5,15.24S642.31,707.65,642.31,698Zm21.9,0c0-6.72-3.36-11.28-8.4-11.28s-8.4,4.56-8.4,11.28,3.42,11.16,8.4,11.16S664.21,704.65,664.21,698Z" transform="translate(-426.97 -209.98)"/><path class="cls-1" d="M674.83,698c0-9.78,6.36-15.36,13.5-15.36s13.5,5.58,13.5,15.36-6.36,15.24-13.5,15.24S674.83,707.65,674.83,698Zm21.9,0c0-6.72-3.36-11.28-8.4-11.28s-8.4,4.56-8.4,11.28,3.42,11.16,8.4,11.16S696.73,704.65,696.73,698Z" transform="translate(-426.97 -209.98)"/><path class="cls-1" d="M707.41,698c0-9.48,6-15.36,12.66-15.36,3.36,0,5.58,1.26,8.16,3.36l-.24-5V669.79h5v42.72h-4.08l-.42-3.42h-.18c-2.28,2.22-5.4,4.14-8.82,4.14C712.15,713.23,707.41,707.71,707.41,698ZM728,705.07V689.83a10.15,10.15,0,0,0-7.08-3.06c-4.68,0-8.4,4.5-8.4,11.16,0,7,2.94,11.16,8,11.16C723.25,709.09,725.59,707.77,728,705.07Z" transform="translate(-426.97 -209.98)"/></svg>