<svg width="283" height="286" viewBox="0 0 283 286" fill="none" xmlns="http://www.w3.org/2000/svg">
<path d="M2 2H33.9049C38.9966 2 43.489 6.10923 44.9699 12.1209L94.9162 214.879C96.397 220.891 100.89 225 105.981 225H218.516C223.807 225 228.425 220.568 229.726 214.238L249.875 116.234C251.176 109.904 255.794 105.472 261.085 105.472H281" stroke="white" stroke-width="3.75648" stroke-linecap="round"/>
<path d="M167.073 58.5783C165.376 56.4739 162.624 56.4739 160.927 58.5783L133.272 92.8794C131.576 94.9842 131.576 98.3967 133.272 100.502C134.97 102.606 137.721 102.606 139.418 100.502L164 70.0123L188.582 100.502C190.279 102.606 193.03 102.606 194.727 100.502C196.424 98.3967 196.424 94.9842 194.727 92.8794L167.073 58.5783ZM168.346 163V62.3896H159.655V163H168.346Z" fill="white"/>
<path d="M134 284C141.18 284 147 276.837 147 268C147 259.163 141.18 252 134 252C126.82 252 121 259.163 121 268C121 276.837 126.82 284 134 284Z" stroke="white" stroke-width="3.00518"/>
<path d="M197 284C204.18 284 210 276.837 210 268C210 259.163 204.18 252 197 252C189.82 252 184 259.163 184 268C184 276.837 189.82 284 197 284Z" stroke="white" stroke-width="3.00518"/>
</svg>
