<svg width="92" height="83" viewBox="0 0 92 83" fill="none" xmlns="http://www.w3.org/2000/svg">
<path d="M64.4 76.775C64.4 73.337 61.3108 70.55 57.5 70.55H34.5C30.6892 70.55 27.6 73.337 27.6 76.775C27.6 80.213 30.6892 83 34.5 83H57.5C61.3108 83 64.4 80.213 64.4 76.775Z" fill="#0A65FF"/>
<path d="M78.2 45.65C78.2 41.066 74.081 37.35 69 37.35H23C17.919 37.35 13.8 41.066 13.8 45.65C13.8 50.234 17.919 53.95 23 53.95H69C74.081 53.95 78.2 50.234 78.2 45.65Z" fill="#0A65FF"/>
<path d="M0 10.375C0 16.105 5.14873 20.75 11.5 20.75H80.5C86.8513 20.75 92 16.105 92 10.375C92 4.64505 86.8513 0 80.5 0H11.5C5.14873 0 0 4.64505 0 10.375Z" fill="#0A65FF"/>
</svg>
